<mxfile host="app.diagrams.net" modified="2023-04-19T10:54:58.751Z" agent="Mozilla/5.0 (Macintosh; Intel Mac OS X 10.15; rv:109.0) Gecko/20100101 Firefox/112.0" etag="biGzBTUrhNZdboiyHyd3" version="21.1.7" type="github">
  <diagram id="NtKInGhpbT3Md37NymQ4" name="Страница 1">
    <mxGraphModel dx="954" dy="533" grid="1" gridSize="10" guides="1" tooltips="1" connect="1" arrows="1" fold="1" page="1" pageScale="1" pageWidth="827" pageHeight="1169" math="0" shadow="0">
      <root>
        <mxCell id="0" />
        <mxCell id="1" parent="0" />
        <mxCell id="QcP04QCASBgb0F3Ka6ls-6" value="" style="edgeStyle=orthogonalEdgeStyle;rounded=0;orthogonalLoop=1;jettySize=auto;html=1;fontSize=15;fontFamily=Times New Roman;endArrow=none;endFill=0;" parent="1" source="QcP04QCASBgb0F3Ka6ls-1" target="QcP04QCASBgb0F3Ka6ls-2" edge="1">
          <mxGeometry relative="1" as="geometry" />
        </mxCell>
        <mxCell id="QcP04QCASBgb0F3Ka6ls-1" value="Factorial(N)" style="rounded=1;whiteSpace=wrap;html=1;arcSize=50;fontSize=15;fontFamily=Times New Roman;" parent="1" vertex="1">
          <mxGeometry x="160" y="100" width="120" height="60" as="geometry" />
        </mxCell>
        <mxCell id="QcP04QCASBgb0F3Ka6ls-7" value="" style="edgeStyle=orthogonalEdgeStyle;rounded=0;orthogonalLoop=1;jettySize=auto;html=1;fontSize=15;fontFamily=Times New Roman;endArrow=none;endFill=0;" parent="1" source="QcP04QCASBgb0F3Ka6ls-2" target="QcP04QCASBgb0F3Ka6ls-3" edge="1">
          <mxGeometry relative="1" as="geometry" />
        </mxCell>
        <mxCell id="QcP04QCASBgb0F3Ka6ls-9" value="" style="edgeStyle=orthogonalEdgeStyle;rounded=0;orthogonalLoop=1;jettySize=auto;html=1;fontSize=15;fontFamily=Times New Roman;endArrow=none;endFill=0;" parent="1" source="QcP04QCASBgb0F3Ka6ls-2" target="QcP04QCASBgb0F3Ka6ls-5" edge="1">
          <mxGeometry relative="1" as="geometry" />
        </mxCell>
        <mxCell id="QcP04QCASBgb0F3Ka6ls-2" value="N==1?" style="rhombus;whiteSpace=wrap;html=1;fontSize=15;fontFamily=Times New Roman;" parent="1" vertex="1">
          <mxGeometry x="180" y="190" width="80" height="80" as="geometry" />
        </mxCell>
        <mxCell id="QcP04QCASBgb0F3Ka6ls-8" value="" style="edgeStyle=orthogonalEdgeStyle;rounded=0;orthogonalLoop=1;jettySize=auto;html=1;fontSize=15;fontFamily=Times New Roman;endArrow=none;endFill=0;" parent="1" source="QcP04QCASBgb0F3Ka6ls-3" target="QcP04QCASBgb0F3Ka6ls-4" edge="1">
          <mxGeometry relative="1" as="geometry" />
        </mxCell>
        <mxCell id="QcP04QCASBgb0F3Ka6ls-3" value="f=N*Factorial(N-1)" style="shape=process;whiteSpace=wrap;html=1;backgroundOutline=1;fontSize=15;fontFamily=Times New Roman;" parent="1" vertex="1">
          <mxGeometry x="140" y="300" width="160" height="70" as="geometry" />
        </mxCell>
        <mxCell id="QcP04QCASBgb0F3Ka6ls-4" value="Возврат f" style="rounded=1;whiteSpace=wrap;html=1;arcSize=50;fontSize=15;fontFamily=Times New Roman;" parent="1" vertex="1">
          <mxGeometry x="330" y="305" width="120" height="60" as="geometry" />
        </mxCell>
        <mxCell id="QcP04QCASBgb0F3Ka6ls-10" value="" style="edgeStyle=orthogonalEdgeStyle;rounded=0;orthogonalLoop=1;jettySize=auto;html=1;fontSize=15;fontFamily=Times New Roman;endArrow=none;endFill=0;" parent="1" source="QcP04QCASBgb0F3Ka6ls-5" target="QcP04QCASBgb0F3Ka6ls-4" edge="1">
          <mxGeometry relative="1" as="geometry" />
        </mxCell>
        <mxCell id="QcP04QCASBgb0F3Ka6ls-5" value="f=1" style="rounded=0;whiteSpace=wrap;html=1;fontSize=15;fontFamily=Times New Roman;" parent="1" vertex="1">
          <mxGeometry x="330" y="200" width="120" height="60" as="geometry" />
        </mxCell>
      </root>
    </mxGraphModel>
  </diagram>
</mxfile>
